<svg xmlns="http://www.w3.org/2000/svg" xmlns:xlink="http://www.w3.org/1999/xlink" width="2000" zoomAndPan="magnify" viewBox="0 0 1500 1499.999933" height="2000" preserveAspectRatio="xMidYMid meet" version="1.0"><defs><g/></defs><rect x="-150" width="1800" fill="#ffffff" y="-149.999993" height="1799.99992" fill-opacity="1"/><g fill="#0a1628" fill-opacity="1"><g transform="translate(337.500004, 884.198352)"><g><path d="M 31.171875 -262.859375 L 150.578125 -262.859375 C 179.117188 -262.859375 204.34375 -257.410156 226.25 -246.515625 C 248.15625 -235.628906 265.175781 -220.296875 277.3125 -200.515625 C 289.457031 -180.742188 295.53125 -157.71875 295.53125 -131.4375 C 295.53125 -105.144531 289.457031 -82.109375 277.3125 -62.328125 C 265.175781 -42.554688 248.15625 -27.222656 226.25 -16.328125 C 204.34375 -5.441406 179.117188 0 150.578125 0 L 31.171875 0 Z M 147.578125 -49.9375 C 173.859375 -49.9375 194.820312 -57.257812 210.46875 -71.90625 C 226.125 -86.550781 233.953125 -106.394531 233.953125 -131.4375 C 233.953125 -156.46875 226.125 -176.304688 210.46875 -190.953125 C 194.820312 -205.597656 173.859375 -212.921875 147.578125 -212.921875 L 92 -212.921875 L 92 -49.9375 Z M 147.578125 -49.9375 "/></g></g></g><g fill="#d4af37" fill-opacity="1"><g transform="translate(647.671853, 884.198352)"><g><path d="M 117.53125 4.5 C 96.757812 4.5 76.671875 1.6875 57.265625 -3.9375 C 37.859375 -9.570312 22.273438 -16.894531 10.515625 -25.90625 L 31.171875 -71.71875 C 42.429688 -63.457031 55.820312 -56.820312 71.34375 -51.8125 C 86.863281 -46.8125 102.382812 -44.3125 117.90625 -44.3125 C 135.1875 -44.3125 147.957031 -46.875 156.21875 -52 C 164.476562 -57.132812 168.609375 -63.957031 168.609375 -72.46875 C 168.609375 -78.726562 166.164062 -83.921875 161.28125 -88.046875 C 156.40625 -92.179688 150.148438 -95.5 142.515625 -98 C 134.878906 -100.507812 124.550781 -103.265625 111.53125 -106.265625 C 91.5 -111.023438 75.097656 -115.78125 62.328125 -120.53125 C 49.566406 -125.289062 38.613281 -132.925781 29.46875 -143.4375 C 20.332031 -153.957031 15.765625 -167.976562 15.765625 -185.5 C 15.765625 -200.769531 19.894531 -214.601562 28.15625 -227 C 36.425781 -239.394531 48.882812 -249.21875 65.53125 -256.46875 C 82.175781 -263.726562 102.515625 -267.359375 126.546875 -267.359375 C 143.316406 -267.359375 159.710938 -265.351562 175.734375 -261.34375 C 191.765625 -257.34375 205.785156 -251.585938 217.796875 -244.078125 L 199.015625 -197.890625 C 174.734375 -211.660156 150.453125 -218.546875 126.171875 -218.546875 C 109.148438 -218.546875 96.570312 -215.789062 88.4375 -210.28125 C 80.300781 -204.78125 76.234375 -197.523438 76.234375 -188.515625 C 76.234375 -179.492188 80.925781 -172.789062 90.3125 -168.40625 C 99.695312 -164.03125 114.03125 -159.71875 133.3125 -155.46875 C 153.332031 -150.707031 169.726562 -145.945312 182.5 -141.1875 C 195.269531 -136.4375 206.222656 -128.925781 215.359375 -118.65625 C 224.492188 -108.394531 229.0625 -94.503906 229.0625 -76.984375 C 229.0625 -61.960938 224.867188 -48.253906 216.484375 -35.859375 C 208.097656 -23.472656 195.515625 -13.648438 178.734375 -6.390625 C 161.960938 0.867188 141.5625 4.5 117.53125 4.5 Z M 117.53125 4.5 "/></g></g></g><g fill="#0a1628" fill-opacity="1"><g transform="translate(887.249957, 884.198352)"><g><path d="M 156.96875 4.5 C 130.175781 4.5 105.953125 -1.316406 84.296875 -12.953125 C 62.648438 -24.597656 45.628906 -40.742188 33.234375 -61.390625 C 20.835938 -82.046875 14.640625 -105.394531 14.640625 -131.4375 C 14.640625 -157.46875 20.835938 -180.804688 33.234375 -201.453125 C 45.628906 -222.109375 62.648438 -238.253906 84.296875 -249.890625 C 105.953125 -261.535156 130.300781 -267.359375 157.34375 -267.359375 C 180.125 -267.359375 200.710938 -263.351562 219.109375 -255.34375 C 237.515625 -247.332031 252.972656 -235.816406 265.484375 -220.796875 L 226.4375 -184.75 C 208.664062 -205.28125 186.632812 -215.546875 160.34375 -215.546875 C 144.070312 -215.546875 129.550781 -211.976562 116.78125 -204.84375 C 104.019531 -197.707031 94.070312 -187.753906 86.9375 -174.984375 C 79.800781 -162.222656 76.234375 -147.707031 76.234375 -131.4375 C 76.234375 -115.15625 79.800781 -100.628906 86.9375 -87.859375 C 94.070312 -75.097656 104.019531 -65.148438 116.78125 -58.015625 C 129.550781 -50.878906 144.070312 -47.3125 160.34375 -47.3125 C 186.632812 -47.3125 208.664062 -57.703125 226.4375 -78.484375 L 265.484375 -42.4375 C 252.972656 -27.164062 237.453125 -15.523438 218.921875 -7.515625 C 200.398438 0.492188 179.75 4.5 156.96875 4.5 Z M 156.96875 4.5 "/></g></g></g></svg>